<svg version="1" xmlns="http://www.w3.org/2000/svg" viewBox="0 0 512 512"><path d="M461 11H210c-28 0-51 23-51 52v39H51c-28 0-51 23-51 52v170a177 177 0 0 0 331 86h5c97 0 176-80 176-177V63c0-29-23-52-51-52zM319 324a142 142 0 0 1-285 0V154c0-10 8-17 17-17h251c9 0 17 7 17 17v170zm159-91c0 75-59 137-133 142 5-16 8-33 8-51v-49c23 5 42 22 51 44l32-13c-15-35-46-60-83-66v-86c0-29-23-52-51-52H193V63c0-10 8-17 17-17h251c9 0 17 7 17 17v170z"/><path d="M245 352a74 74 0 0 1-137 0l-32 13a108 108 0 0 0 201 0l-32-13z"/></svg>