<?xml version="1.0" encoding="iso-8859-1"?>
<!-- Generator: Adobe Illustrator 19.0.0, SVG Export Plug-In . SVG Version: 6.00 Build 0)  -->
<svg version="1.1" id="Layer_1" xmlns="http://www.w3.org/2000/svg" xmlns:xlink="http://www.w3.org/1999/xlink" x="0px" y="0px"
	 viewBox="0 0 512 512" style="enable-background:new 0 0 512 512;" xml:space="preserve">
<g>
	<g>
		<path d="M460.8,11.378H210.489c-28.233,0-51.2,22.968-51.2,51.2V102.4H51.2C22.968,102.4,0,125.368,0,153.6v170.667
			c0,97.244,79.112,176.356,176.356,176.356c66.339,0,124.229-36.824,154.332-91.099c1.655,0.046,3.309,0.076,4.957,0.076
			C432.888,409.6,512,330.488,512,233.244V62.578C512,34.346,489.033,11.378,460.8,11.378z M318.578,324.267
			c0,78.421-63.801,142.222-142.222,142.222S34.133,402.688,34.133,324.267V153.6c0-9.411,7.656-17.067,17.067-17.067h250.311
			c9.412,0,17.067,7.656,17.067,17.067V324.267z M477.867,233.244c0,75.203-58.673,136.949-132.646,141.892
			c4.863-16.114,7.49-33.19,7.49-50.87V275.04c23.035,5.403,42.345,21.588,51.519,44.252l31.641-12.807
			c-14.441-35.67-46.06-60.36-83.159-66.207V153.6c0-28.232-22.967-51.2-51.2-51.2H193.422V62.578
			c0-9.411,7.656-17.067,17.067-17.067H460.8c9.412,0,17.067,7.656,17.067,17.067V233.244z"/>
	</g>
</g>
<g>
	<g>
		<path d="M244.916,351.994c-11.37,28.083-38.283,46.228-68.56,46.228c-30.277,0-57.19-18.145-68.561-46.228l-31.638,12.811
			c16.617,41.035,55.947,67.55,100.2,67.55c44.253,0,83.582-26.515,100.198-67.55L244.916,351.994z"/>
	</g>
</g>
<g>
</g>
<g>
</g>
<g>
</g>
<g>
</g>
<g>
</g>
<g>
</g>
<g>
</g>
<g>
</g>
<g>
</g>
<g>
</g>
<g>
</g>
<g>
</g>
<g>
</g>
<g>
</g>
<g>
</g>
</svg>
