<svg version="1" xmlns="http://www.w3.org/2000/svg" width="512" height="512"><path d="M256 0a256 256 0 1 0 0 512 256 256 0 0 0 0-512zm0 480a224 224 0 1 1 1-449 224 224 0 0 1-1 449zm80-214c6 10 9 22 9 36 0 21-7 39-19 53a81 81 0 0 1-55 25v36h-30v-36c-40-4-64-27-74-69l47-12c5 26 19 39 43 39 12 0 20-3 26-8s8-13 8-21-3-14-9-19c-5-4-17-9-35-16-17-6-30-11-39-17-10-6-17-13-23-24-6-10-9-22-9-35 0-18 5-34 16-48 10-14 27-23 49-26V96h30v28c34 4 56 23 66 57l-42 18c-8-24-20-36-37-36-9 0-16 3-21 8s-8 12-8 19c0 8 3 14 8 18s15 9 32 15c18 7 32 13 42 19 10 5 18 14 25 24z"/></svg>