<?xml version="1.0"?>
<svg xmlns="http://www.w3.org/2000/svg" xmlns:xlink="http://www.w3.org/1999/xlink" version="1.1" viewBox="0 0 224 224" width="208px" height="208px"><g transform=""><g fill="none" fill-rule="nonzero" stroke="none" stroke-width="1" stroke-linecap="butt" stroke-linejoin="miter" stroke-miterlimit="10" stroke-dasharray="" stroke-dashoffset="0" font-family="none" font-weight="none" font-size="none" text-anchor="none" style="mix-blend-mode: normal"><path d="M0,224v-224h224v224z" /><g fill="#eead0e"><g id="surface1"><path d="M99.07692,-0.26923c-16.86057,0 -30.42308,14 -30.42308,30.96154v3.76923h-34.19231c-4.74519,0 -8.61538,3.87019 -8.61538,8.61538v8.61538h-8.61538v17.23077h17.23077v129.23077c0,14.16827 11.67789,25.84615 25.84615,25.84615h103.38462c14.16827,0 25.84615,-11.67789 25.84615,-25.84615v-129.23077h17.23077v-17.23077h-8.61538v-8.61538c0,-4.74519 -3.87019,-8.61538 -8.61538,-8.61538h-34.19231v-3.76923c0,-16.96154 -13.5625,-30.96154 -30.42308,-30.96154zM99.07692,17.5h25.84615c6.9327,0 12.65385,5.65385 12.65385,13.19231v3.76923h-51.15385v-3.76923c0,-7.53846 5.72116,-13.19231 12.65385,-13.19231zM51.69231,68.92308h44.15385c1.07692,0.10096 2.12019,0.26923 3.23077,0.26923h25.84615c1.11057,0 2.15385,-0.16827 3.23077,-0.26923h44.15385v129.23077c0,4.84615 -3.76923,8.61538 -8.61538,8.61538h-103.38462c-4.84615,0 -8.61538,-3.76923 -8.61538,-8.61538zM68.92308,86.15385v103.38462h17.23077v-103.38462zM103.38462,86.15385v103.38462h17.23077v-103.38462zM137.84615,86.15385v103.38462h17.23077v-103.38462z"/></g></g><path d="" fill="none"/><path d="" fill="none"/></g></g></svg>
