<?xml version="1.0" encoding="UTF-8" standalone="no"?>
<!DOCTYPE svg PUBLIC "-//W3C//DTD SVG 1.1//EN" "http://www.w3.org/Graphics/SVG/1.1/DTD/svg11.dtd">
<svg width="100%" height="100%" viewBox="0 0 1000 1000" version="1.1" xmlns="http://www.w3.org/2000/svg" xmlns:xlink="http://www.w3.org/1999/xlink" xml:space="preserve" xmlns:serif="http://www.serif.com/" style="fill-rule:evenodd;clip-rule:evenodd;stroke-linecap:square;stroke-miterlimit:6;">
    <g transform="matrix(1,0,0,1,-2189.19,-4.38699)">
        <g id="Tally" transform="matrix(2.38286,0,0,1.05961,-442.905,-13.6929)">
            <rect x="1104.6" y="17.063" width="419.664" height="943.747" style="fill:none;"/>
            <clipPath id="_clip1">
                <rect x="1104.6" y="17.063" width="419.664" height="943.747"/>
            </clipPath>
            <g clip-path="url(#_clip1)">
                <g transform="matrix(0.419664,0,0,0.943747,211.759,14.729)">
                    <path d="M2358.29,77.118L2358.29,923.534" style="fill:none;stroke:black;stroke-width:30px;"/>
                </g>
                <g transform="matrix(0.419664,0,0,0.943747,211.759,14.729)">
                    <path d="M2529.01,77.118L2529.01,923.534" style="fill:none;stroke:black;stroke-width:30px;"/>
                </g>
                <g transform="matrix(0.419664,0,0,0.943747,211.759,14.729)">
                    <path d="M2689.19,77.118L2689.19,923.534" style="fill:none;stroke:black;stroke-width:30px;"/>
                </g>
                <g transform="matrix(0.419664,0,0,0.943747,211.759,14.729)">
                    <path d="M2866.88,77.118L2866.88,923.534" style="fill:none;stroke:black;stroke-width:30px;"/>
                </g>
                <g transform="matrix(0.419664,0,0,0.943747,211.759,14.729)">
                    <path d="M2993.93,77.118L2261.07,927.828" style="fill:none;stroke:black;stroke-width:30px;"/>
                </g>
            </g>
        </g>
    </g>
</svg>
