<?xml version="1.0" encoding="UTF-8" standalone="no"?>
<!DOCTYPE svg PUBLIC "-//W3C//DTD SVG 1.1//EN" "http://www.w3.org/Graphics/SVG/1.1/DTD/svg11.dtd">
<svg width="100%" height="100%" viewBox="0 0 1000 1000" version="1.1" xmlns="http://www.w3.org/2000/svg" xmlns:xlink="http://www.w3.org/1999/xlink" xml:space="preserve" xmlns:serif="http://www.serif.com/" style="fill-rule:evenodd;clip-rule:evenodd;stroke-linecap:round;stroke-linejoin:round;stroke-miterlimit:1.5;">
    <g transform="matrix(1,0,0,1,0,-1080.92)">
        <g id="Cog---Filled" serif:id="Cog - Filled" transform="matrix(1,0,0,1,0,1080.92)">
            <rect x="0" y="0" width="1000" height="1000" style="fill:none;"/>
            <g transform="matrix(1.78849,0,0,1.78849,-102.499,-460.5)">
                <path d="M351.813,267.433C341.862,266.882 331.889,266.882 321.938,267.433L316.987,308.384C307.407,309.217 297.888,310.652 288.488,312.679L271.686,275.007C262.015,277.414 252.485,280.353 243.139,283.813L250.478,324.404C241.569,328.024 232.896,332.2 224.511,336.909L197.352,305.863C188.82,311.013 180.579,316.631 172.668,322.692L191.646,359.316C184.199,365.401 177.143,371.949 170.518,378.919L135.415,357.258C128.78,364.694 122.561,372.492 116.788,380.615L145.718,410.018C140.396,418.028 135.583,426.364 131.307,434.978L91.379,424.626C87.23,433.687 83.586,442.972 80.464,452.436L116.775,472.005C114.05,481.228 111.908,490.613 110.361,500.104L69.156,501.981C67.862,511.863 67.117,521.808 66.923,531.772L107.389,539.77C107.504,549.386 108.223,558.985 109.543,568.51L70.721,582.45C72.398,592.273 74.617,601.997 77.369,611.576L118.394,607.29C121.338,616.445 124.855,625.405 128.924,634.119L95.935,658.882C100.433,667.775 105.42,676.413 110.873,684.754L148.812,668.567C154.324,676.447 160.326,683.973 166.782,691.1L142.558,724.486C149.477,731.659 156.788,738.443 164.458,744.807L195.94,718.155C203.53,724.061 211.484,729.483 219.754,734.391L206.446,773.434C215.173,778.248 224.159,782.576 233.363,786.396L255.591,751.65C264.585,755.056 273.783,757.893 283.132,760.145L281.924,801.376C291.682,803.404 301.544,804.89 311.466,805.828L322.465,766.073C332.062,766.677 341.688,766.677 351.286,766.073L362.285,805.828C372.207,804.89 382.069,803.404 391.826,801.376L390.619,760.145C399.968,757.893 409.166,755.056 418.16,751.65L440.388,786.396C449.592,782.576 458.578,778.248 467.304,773.434L453.997,734.391C462.267,729.483 470.221,724.061 477.811,718.155L509.293,744.807C516.963,738.443 524.274,731.659 531.193,724.486L506.969,691.1C513.425,683.973 519.427,676.447 524.939,668.567L562.878,684.754C568.331,676.413 573.318,667.775 577.816,658.882L544.827,634.119C548.896,625.405 552.413,616.445 555.357,607.29L596.382,611.576C599.134,601.997 601.353,592.273 603.03,582.45L564.208,568.51C565.528,558.985 566.247,549.386 566.362,539.77L606.828,531.772C606.634,521.808 605.889,511.863 604.595,501.981L563.389,500.104C561.842,490.613 559.7,481.228 556.976,472.005L593.287,452.436C590.165,442.972 586.521,433.687 582.372,424.626L542.444,434.978C538.168,426.364 533.355,418.028 528.033,410.018L556.963,380.615C551.19,372.492 544.971,364.694 538.336,357.258L503.233,378.919C496.608,371.949 489.552,365.401 482.105,359.316L501.083,322.692C493.172,316.631 484.931,311.013 476.399,305.863L449.24,336.909C440.855,332.2 432.182,328.024 423.273,324.404L430.612,283.813C421.266,280.353 411.736,277.414 402.065,275.007L385.263,312.679C375.863,310.652 366.344,309.217 356.764,308.384L351.813,267.433ZM336.875,352.102C438.936,352.102 521.797,434.962 521.797,537.023C521.797,639.084 438.936,721.945 336.875,721.945C234.815,721.945 151.954,639.084 151.954,537.023C151.954,434.962 234.815,352.102 336.875,352.102Z" style="stroke:black;stroke-width:16.77px;"/>
            </g>
            <g transform="matrix(0.866144,0.866144,-0.866144,0.866144,673.357,-256.96)">
                <path d="M361.889,268.181C345.249,266.633 328.502,266.633 311.862,268.181L311.862,399.12C254.382,409.545 209.398,454.53 198.972,512.01L68.033,512.01C66.485,528.649 66.485,545.397 68.033,562.037L198.972,562.037C209.398,619.516 254.382,664.501 311.862,674.927L311.862,805.865C328.502,807.414 345.249,807.414 361.889,805.865L361.889,674.927C419.368,664.501 464.353,619.516 474.779,562.037L605.718,562.037C607.266,545.397 607.266,528.649 605.718,512.01L474.779,512.01C464.353,454.53 419.368,409.545 361.889,399.12L361.889,268.181ZM336.875,451.999C383.801,451.999 421.899,490.097 421.899,537.023C421.899,583.949 383.801,622.047 336.875,622.047C289.95,622.047 251.852,583.949 251.852,537.023C251.852,490.097 289.95,451.999 336.875,451.999Z" style="stroke:black;stroke-width:23.68px;"/>
            </g>
        </g>
    </g>
</svg>
