<?xml version="1.0" encoding="UTF-8" standalone="no"?>
<!DOCTYPE svg PUBLIC "-//W3C//DTD SVG 1.1//EN" "http://www.w3.org/Graphics/SVG/1.1/DTD/svg11.dtd">
<svg width="100%" height="100%" viewBox="0 0 1000 1000" version="1.1" xmlns="http://www.w3.org/2000/svg" xmlns:xlink="http://www.w3.org/1999/xlink" xml:space="preserve" xmlns:serif="http://www.serif.com/" style="fill-rule:evenodd;clip-rule:evenodd;stroke-linecap:square;stroke-miterlimit:6;">
    <g transform="matrix(1,0,0,1,-1090.65,0)">
        <g id="Architecure" transform="matrix(2.38286,0,0,1.05961,-1541.44,-18.0799)">
            <rect x="1104.6" y="17.063" width="419.664" height="943.747" style="fill:none;"/>
            <clipPath id="_clip1">
                <rect x="1104.6" y="17.063" width="419.664" height="943.747"/>
            </clipPath>
            <g clip-path="url(#_clip1)">
                <g transform="matrix(0.327582,0,0,0.736672,793.359,156.026)">
                    <path d="M1090.65,500L1590.65,1000L2090.65,500" style="fill:none;stroke:black;stroke-width:128.11px;"/>
                </g>
                <g transform="matrix(0.419664,0,0,0.943747,661.893,9.84127)">
                    <path d="M1555.5,49.611L1556.09,49.617L1556.69,49.626L1557.29,49.639L1557.88,49.656L1558.48,49.677L1559.08,49.702L1559.67,49.73L1560.26,49.762L1560.86,49.798L1561.45,49.837L1562.04,49.88L1562.63,49.927L1563.22,49.978L1563.81,50.032L1564.39,50.09L1564.98,50.151L1565.57,50.216L1566.15,50.285L1566.73,50.358L1567.32,50.434L1567.9,50.513L1568.48,50.596L1569.06,50.683L1569.64,50.774L1570.22,50.868L1570.79,50.965L1571.37,51.066L1571.94,51.171L1572.51,51.279L1573.09,51.39L1573.66,51.505L1574.23,51.624L1574.79,51.746L1575.36,51.871L1575.93,52L1576.49,52.132L1577.05,52.268L1577.62,52.407L1578.18,52.55L1578.74,52.696L1579.29,52.845L1579.85,52.997L1580.4,53.153L1580.96,53.312L1581.51,53.475L1582.06,53.641L1582.61,53.81L1583.16,53.983L1583.71,54.159L1584.25,54.338L1584.8,54.52L1585.34,54.705L1585.88,54.894L1586.42,55.085L1586.95,55.281L1587.49,55.479L1588.03,55.681L1588.56,55.885L1589.09,56.093L1589.62,56.303L1590.15,56.518L1590.67,56.735L1591.2,56.955L1591.72,57.178L1592.24,57.405L1592.76,57.634L1593.28,57.867L1593.8,58.102L1594.31,58.341L1594.82,58.583L1595.33,58.827L1595.84,59.074L1596.35,59.324L1596.86,59.578L1597.36,59.834L1597.86,60.094L1598.36,60.356L1598.86,60.62L1599.36,60.889L1599.85,61.16L1600.35,61.433L1600.84,61.71L1601.33,61.989L1601.81,62.272L1602.3,62.556L1602.78,62.844L1603.27,63.136L1603.74,63.428L1604.22,63.724L1604.7,64.024L1605.17,64.326L1605.64,64.631L1606.11,64.937L1606.58,65.247L1607.05,65.561L1607.51,65.876L1607.97,66.193L1608.43,66.514L1608.89,66.838L1609.34,67.164L1609.8,67.492L1610.25,67.825L1610.7,68.158L1611.14,68.494L1611.59,68.834L1612.03,69.176L1612.47,69.519L1612.91,69.865L1613.35,70.216L1613.78,70.568L1614.21,70.923L1614.64,71.279L1615.07,71.638L1615.5,72.001L1615.92,72.365L1616.34,72.731L1616.76,73.101L1617.17,73.473L1617.59,73.847L1618,74.226L1618.41,74.604L1618.82,74.985L1619.22,75.368L1619.63,75.754L1620.03,76.145L1620.43,76.536L1620.82,76.927L1621.21,77.324L1621.61,77.723L1621.99,78.122L1622.38,78.525L1622.76,78.93L1623.15,79.339L1623.53,79.748L1623.9,80.161L1624.28,80.576L1624.65,80.988L1625.02,81.407L1625.39,81.833L1625.75,82.255L1626.11,82.679L1626.47,83.106L1626.83,83.536L1627.18,83.971L1627.53,84.402L1627.88,84.838L1628.23,85.278L1628.58,85.72L1628.92,86.161L1629.26,86.606L1629.59,87.055L1629.92,87.501L1630.26,87.952L1630.59,88.409L1630.91,88.863L1631.24,89.321L1631.56,89.78L1631.87,90.239L1632.19,90.704L1632.5,91.171L1632.81,91.64L1633.12,92.108L1633.42,92.58L1633.73,93.053L1634.02,93.528L1634.32,94.007L1634.61,94.485L1634.9,94.967L1635.19,95.451L1635.48,95.937L1635.76,96.426L1636.04,96.914L1636.32,97.404L1636.59,97.895L1636.86,98.39L1637.13,98.89L1637.39,99.388L1637.66,99.887L1637.91,100.388L1638.17,100.893L1638.43,101.4L1638.67,101.904L1638.92,102.416L1639.17,102.927L1639.41,103.438L1639.65,103.954L1639.88,104.471L1640.12,104.99L1640.34,105.506L1640.57,106.03L1640.79,106.552L1641.01,107.075L1641.23,107.606L1641.45,108.134L1641.66,108.661L1641.86,109.191L1642.07,109.723L1642.27,110.259L1642.47,110.797L1642.66,111.332L1642.86,111.871L1643.04,112.411L1643.23,112.956L1643.41,113.498L1643.59,114.042L1643.77,114.593L1643.94,115.138L1644.11,115.687L1644.28,116.241L1644.44,116.789L1644.6,117.344L1644.75,117.901L1644.9,118.454L1645.06,119.016L1645.2,119.575L1645.34,120.134L1645.48,120.694L1645.62,121.259L1645.75,121.824L1645.88,122.387L1646,122.957L1646.13,123.524L1646.24,124.092L1646.36,124.665L1646.47,125.238L1646.58,125.811L1646.68,126.385L1646.78,126.956L1646.88,127.535L1646.98,128.114L1647.07,128.69L1647.15,129.271L1647.24,129.851L1647.32,130.433L1647.39,131.014L1647.47,131.6L1647.53,132.183L1647.6,132.769L1647.66,133.356L1647.72,133.943L1647.77,134.535L1647.82,135.122L1647.87,135.711L1647.91,136.303L1647.95,136.895L1647.99,137.488L1648.02,138.08L1648.05,138.673L1648.07,139.27L1648.09,139.863L1648.11,140.461L1648.12,141.061L1648.13,141.655L1648.14,142.253L1648.14,142.854L1648.14,143.455L1648.13,144.052L1648.12,144.646L1648.11,145.247L1648.09,145.844L1648.07,146.437L1648.05,147.034L1648.02,147.627L1647.99,148.22L1647.95,148.812L1647.91,149.405L1647.87,149.997L1647.82,150.585L1647.77,151.173L1647.72,151.764L1647.66,152.351L1647.6,152.938L1647.53,153.525L1647.47,154.107L1647.39,154.693L1647.32,155.275L1647.24,155.856L1647.15,156.437L1647.07,157.017L1646.98,157.593L1646.88,158.172L1646.78,158.751L1646.68,159.322L1646.58,159.896L1646.47,160.47L1646.36,161.043L1646.24,161.615L1646.13,162.183L1646,162.75L1645.88,163.321L1645.75,163.883L1645.62,164.448L1645.48,165.013L1645.34,165.573L1645.2,166.133L1645.06,166.692L1644.9,167.253L1644.75,167.807L1644.6,168.363L1644.44,168.919L1644.28,169.466L1644.11,170.02L1643.94,170.57L1643.77,171.115L1643.59,171.666L1643.41,172.209L1643.23,172.751L1643.04,173.296L1642.86,173.836L1642.66,174.376L1642.47,174.911L1642.27,175.448L1642.07,175.984L1641.86,176.516L1641.66,177.047L1641.45,177.573L1641.23,178.102L1641.01,178.633L1640.79,179.156L1640.57,179.677L1640.34,180.202L1640.12,180.718L1639.88,181.236L1639.65,181.753L1639.41,182.269L1639.17,182.781L1638.92,183.291L1638.67,183.803L1638.43,184.308L1638.17,184.814L1637.91,185.319L1637.66,185.82L1637.39,186.32L1637.13,186.818L1636.86,187.317L1636.59,187.813L1636.32,188.304L1636.04,188.793L1635.76,189.281L1635.48,189.771L1635.19,190.256L1634.9,190.74L1634.61,191.222L1634.32,191.7L1634.02,192.179L1633.73,192.654L1633.42,193.128L1633.12,193.6L1632.81,194.067L1632.5,194.536L1632.19,195.003L1631.87,195.469L1631.56,195.927L1631.24,196.387L1630.91,196.845L1630.59,197.298L1630.26,197.755L1629.92,198.206L1629.59,198.652L1629.26,199.102L1628.92,199.547L1628.58,199.988L1628.23,200.429L1627.88,200.87L1627.53,201.305L1627.18,201.737L1626.83,202.171L1626.47,202.602L1626.11,203.028L1625.75,203.452L1625.39,203.875L1625.02,204.3L1624.65,204.719L1624.28,205.131L1623.9,205.546L1623.53,205.959L1623.15,206.368L1622.76,206.777L1622.38,207.182L1621.99,207.585L1621.61,207.984L1621.22,208.383L1620.82,208.78L1620.43,209.171L1620.03,209.562L1619.63,209.953L1619.22,210.34L1618.82,210.722L1618.41,211.103L1618,211.482L1617.59,211.86L1617.17,212.234L1616.76,212.606L1616.34,212.976L1615.92,213.342L1615.5,213.706L1615.07,214.069L1614.64,214.429L1614.21,214.785L1613.78,215.139L1613.35,215.492L1612.91,215.842L1612.47,216.189L1612.03,216.531L1611.59,216.873L1611.14,217.214L1610.7,217.549L1610.25,217.883L1609.8,218.215L1609.34,218.543L1608.89,218.869L1608.43,219.193L1607.97,219.514L1607.51,219.832L1607.05,220.146L1606.58,220.46L1606.11,220.77L1605.64,221.076L1605.17,221.381L1604.7,221.683L1604.22,221.983L1603.74,222.279L1603.27,222.571L1602.78,222.863L1602.3,223.151L1601.81,223.436L1601.33,223.718L1600.84,223.997L1600.35,224.274L1599.85,224.548L1599.36,224.819L1598.86,225.087L1598.36,225.351L1597.86,225.613L1597.36,225.873L1596.86,226.13L1596.35,226.383L1595.84,226.634L1595.33,226.881L1594.82,227.125L1594.31,227.367L1593.8,227.605L1593.28,227.841L1592.76,228.073L1592.24,228.302L1591.72,228.529L1591.2,228.752L1590.67,228.972L1590.15,229.19L1589.62,229.404L1589.09,229.614L1588.56,229.822L1588.03,230.027L1587.49,230.228L1586.95,230.426L1586.42,230.622L1585.88,230.813L1585.34,231.002L1584.8,231.188L1584.25,231.37L1583.71,231.549L1583.16,231.725L1582.61,231.897L1582.06,232.066L1581.51,232.232L1580.96,232.395L1580.4,232.554L1579.85,232.71L1579.29,232.863L1578.74,233.012L1578.18,233.158L1577.62,233.3L1577.05,233.439L1576.49,233.575L1575.93,233.707L1575.36,233.836L1574.79,233.962L1574.23,234.084L1573.66,234.202L1573.09,234.317L1572.51,234.429L1571.94,234.537L1571.37,234.641L1570.79,234.742L1570.22,234.84L1569.64,234.934L1569.06,235.024L1568.48,235.111L1567.9,235.194L1567.32,235.274L1566.73,235.35L1566.15,235.422L1565.57,235.491L1564.98,235.556L1564.39,235.618L1563.81,235.676L1563.22,235.73L1562.63,235.78L1562.04,235.827L1561.45,235.87L1560.86,235.91L1560.26,235.945L1559.67,235.977L1559.08,236.006L1558.48,236.03L1557.88,236.051L1557.29,236.068L1556.69,236.081L1556.09,236.091L1555.5,236.096L1554.9,236.098L1554.3,236.096L1553.7,236.091L1553.1,236.081L1552.5,236.068L1551.91,236.051L1551.31,236.03L1550.72,236.006L1550.12,235.977L1549.53,235.945L1548.94,235.91L1548.35,235.87L1547.75,235.827L1547.16,235.78L1546.58,235.73L1545.99,235.676L1545.4,235.618L1544.81,235.556L1544.23,235.491L1543.64,235.422L1543.06,235.35L1542.48,235.274L1541.89,235.194L1541.31,235.111L1540.73,235.024L1540.15,234.934L1539.58,234.84L1539,234.742L1538.42,234.641L1537.85,234.537L1537.28,234.429L1536.71,234.317L1536.14,234.202L1535.57,234.084L1535,233.962L1534.43,233.836L1533.87,233.707L1533.3,233.575L1532.74,233.44L1532.18,233.3L1531.62,233.158L1531.06,233.012L1530.5,232.863L1529.94,232.71L1529.39,232.554L1528.83,232.395L1528.28,232.232L1527.73,232.066L1527.18,231.897L1526.63,231.724L1526.09,231.549L1525.54,231.37L1525,231.188L1524.46,231.002L1523.91,230.813L1523.38,230.621L1522.84,230.427L1522.3,230.228L1521.77,230.027L1521.23,229.822L1520.7,229.614L1520.17,229.404L1519.64,229.189L1519.12,228.972L1518.59,228.752L1518.07,228.529L1517.55,228.303L1517.03,228.073L1516.51,227.841L1516,227.605L1515.48,227.366L1514.97,227.125L1514.46,226.881L1513.95,226.634L1513.44,226.382L1512.94,226.13L1512.43,225.873L1511.93,225.614L1511.43,225.352L1510.93,225.086L1510.43,224.819L1509.94,224.548L1509.45,224.274L1508.95,223.997L1508.46,223.717L1507.98,223.437L1507.49,223.151L1507.01,222.862L1506.53,222.572L1506.05,222.279L1505.57,221.982L1505.1,221.683L1504.62,221.381L1504.15,221.077L1503.68,220.77L1503.21,220.459L1502.75,220.148L1502.28,219.832L1501.82,219.513L1501.36,219.193L1500.9,218.869L1500.45,218.543L1500,218.215L1499.55,217.884L1499.1,217.549L1498.65,217.212L1498.2,216.875L1497.76,216.533L1497.32,216.187L1496.88,215.84L1496.44,215.492L1496.01,215.139L1495.58,214.786L1495.15,214.429L1494.72,214.068L1494.3,213.706L1493.87,213.342L1493.45,212.976L1493.03,212.606L1492.62,212.234L1492.2,211.86L1491.79,211.483L1491.38,211.103L1490.97,210.722L1490.57,210.34L1490.16,209.951L1489.77,209.564L1489.37,209.173L1488.97,208.778L1488.58,208.383L1488.19,207.984L1487.8,207.583L1487.41,207.182L1487.03,206.777L1486.64,206.368L1486.27,205.959L1485.89,205.548L1485.52,205.133L1485.14,204.717L1484.77,204.298L1484.41,203.877L1484.04,203.452L1483.68,203.028L1483.32,202.602L1482.96,202.169L1482.61,201.739L1482.26,201.305L1481.91,200.867L1481.56,200.429L1481.22,199.988L1480.88,199.547L1480.54,199.102L1480.2,198.655L1479.87,198.206L1479.53,197.753L1479.21,197.301L1478.88,196.845L1478.56,196.387L1478.24,195.927L1477.92,195.466L1477.6,195.003L1477.29,194.536L1476.98,194.07L1476.67,193.6L1476.37,193.125L1476.07,192.654L1475.77,192.179L1475.47,191.7L1475.18,191.222L1474.89,190.74L1474.6,190.256L1474.31,189.771L1474.03,189.284L1473.75,188.796L1473.48,188.304L1473.2,187.81L1472.93,187.314L1472.66,186.818L1472.4,186.323L1472.14,185.823L1471.88,185.316L1471.62,184.814L1471.37,184.308L1471.12,183.8L1470.87,183.294L1470.62,182.781L1470.38,182.266L1470.14,181.753L1469.91,181.239L1469.68,180.718L1469.45,180.198L1469.22,179.677L1469,179.156L1468.78,178.633L1468.56,178.105L1468.35,177.577L1468.13,177.044L1467.93,176.516L1467.72,175.984L1467.52,175.448L1467.32,174.911L1467.13,174.372L1466.94,173.836L1466.75,173.296L1466.56,172.755L1466.38,172.209L1466.2,171.662L1466.03,171.118L1465.85,170.57L1465.68,170.02L1465.52,169.47L1465.35,168.915L1465.2,168.363L1465.04,167.807L1464.89,167.25L1464.74,166.695L1464.59,166.133L1464.45,165.573L1464.31,165.013L1464.17,164.448L1464.04,163.883L1463.91,163.317L1463.79,162.75L1463.67,162.183L1463.55,161.615L1463.43,161.043L1463.32,160.47L1463.21,159.896L1463.11,159.326L1463.01,158.751L1462.91,158.172L1462.82,157.593L1462.73,157.013L1462.64,156.437L1462.56,155.86L1462.48,155.275L1462.4,154.689L1462.33,154.107L1462.26,153.525L1462.19,152.938L1462.13,152.351L1462.07,151.764L1462.02,151.173L1461.97,150.585L1461.92,149.997L1461.88,149.408L1461.84,148.812L1461.8,148.22L1461.77,147.627L1461.74,147.03L1461.72,146.441L1461.7,145.844L1461.68,145.243L1461.67,144.65L1461.66,144.052L1461.65,143.451L1461.65,142.854L1461.65,142.256L1461.66,141.655L1461.67,141.058L1461.68,140.464L1461.7,139.863L1461.72,139.267L1461.74,138.677L1461.77,138.08L1461.8,137.488L1461.84,136.895L1461.88,136.299L1461.92,135.711L1461.97,135.122L1462.02,134.535L1462.07,133.943L1462.13,133.356L1462.19,132.769L1462.26,132.183L1462.33,131.6L1462.4,131.018L1462.48,130.433L1462.56,129.848L1462.64,129.271L1462.73,128.694L1462.82,128.114L1462.91,127.535L1463.01,126.956L1463.11,126.381L1463.21,125.811L1463.32,125.238L1463.43,124.665L1463.55,124.092L1463.67,123.524L1463.79,122.957L1463.91,122.39L1464.04,121.824L1464.17,121.259L1464.31,120.694L1464.45,120.134L1464.59,119.575L1464.74,119.012L1464.89,118.458L1465.04,117.901L1465.2,117.344L1465.35,116.792L1465.52,116.237L1465.68,115.687L1465.85,115.138L1466.03,114.589L1466.2,114.045L1466.38,113.498L1466.56,112.953L1466.75,112.411L1466.94,111.871L1467.13,111.335L1467.32,110.797L1467.52,110.259L1467.72,109.723L1467.93,109.191L1468.13,108.664L1468.35,108.131L1468.56,107.602L1468.78,107.075L1469,106.552L1469.22,106.03L1469.45,105.509L1469.68,104.99L1469.91,104.468L1470.14,103.954L1470.38,103.441L1470.62,102.927L1470.87,102.413L1471.12,101.907L1471.37,101.4L1471.62,100.893L1471.88,100.391L1472.14,99.884L1472.4,99.385L1472.66,98.89L1472.93,98.393L1473.2,97.898L1473.48,97.404L1473.75,96.911L1474.03,96.423L1474.31,95.937L1474.6,95.451L1474.89,94.967L1475.18,94.485L1475.47,94.007L1475.77,93.528L1476.07,93.053L1476.37,92.582L1476.67,92.108L1476.98,91.638L1477.29,91.171L1477.6,90.704L1477.92,90.241L1478.24,89.78L1478.56,89.321L1478.88,88.863L1479.21,88.406L1479.54,87.954L1479.87,87.501L1480.2,87.053L1480.54,86.606L1480.88,86.161L1481.22,85.72L1481.56,85.278L1481.91,84.84L1482.26,84.402L1482.61,83.968L1482.96,83.538L1483.32,83.106L1483.68,82.679L1484.04,82.255L1484.41,81.83L1484.77,81.41L1485.14,80.991L1485.52,80.574L1485.89,80.159L1486.27,79.748L1486.64,79.339L1487.03,78.93L1487.41,78.525L1487.8,78.124L1488.19,77.723L1488.58,77.324L1488.97,76.929L1489.37,76.534L1489.77,76.143L1490.16,75.756L1490.57,75.368L1490.97,74.985L1491.38,74.604L1491.79,74.224L1492.2,73.847L1492.62,73.473L1493.03,73.101L1493.45,72.731L1493.87,72.365L1494.3,72.001L1494.72,71.64L1495.15,71.279L1495.58,70.921L1496.01,70.568L1496.44,70.216L1496.88,69.867L1497.32,69.52L1497.76,69.175L1498.2,68.833L1498.65,68.495L1499.1,68.158L1499.55,67.823L1500,67.492L1500.45,67.164L1500.9,66.838L1501.36,66.514L1501.82,66.194L1502.28,65.876L1502.75,65.56L1503.21,65.249L1503.68,64.937L1504.15,64.63L1504.62,64.326L1505.1,64.024L1505.57,63.726L1506.05,63.428L1506.53,63.135L1507.01,62.845L1507.49,62.556L1507.98,62.271L1508.46,61.99L1508.95,61.71L1509.45,61.433L1509.94,61.16L1510.43,60.889L1510.93,60.621L1511.43,60.355L1511.93,60.093L1512.43,59.834L1512.94,59.578L1513.44,59.325L1513.95,59.074L1514.46,58.826L1514.97,58.583L1515.48,58.341L1516,58.102L1516.51,57.867L1517.03,57.634L1517.55,57.404L1518.07,57.178L1518.59,56.955L1519.12,56.735L1519.64,56.518L1520.17,56.303L1520.7,56.093L1521.23,55.885L1521.77,55.681L1522.3,55.479L1522.84,55.281L1523.38,55.086L1523.91,54.894L1524.45,54.705L1525,54.52L1525.54,54.338L1526.09,54.158L1526.63,53.983L1527.18,53.81L1527.73,53.641L1528.28,53.475L1528.83,53.312L1529.39,53.153L1529.94,52.997L1530.5,52.845L1531.06,52.695L1531.62,52.55L1532.18,52.407L1532.74,52.268L1533.3,52.132L1533.87,52L1534.43,51.871L1535,51.746L1535.57,51.624L1536.14,51.505L1536.71,51.39L1537.28,51.279L1537.85,51.17L1538.42,51.066L1539,50.965L1539.58,50.868L1540.15,50.774L1540.73,50.683L1541.31,50.596L1541.89,50.513L1542.48,50.434L1543.06,50.358L1543.64,50.285L1544.23,50.216L1544.81,50.151L1545.4,50.09L1545.99,50.032L1546.57,49.978L1547.16,49.927L1547.75,49.88L1548.35,49.837L1548.94,49.798L1549.53,49.762L1550.12,49.73L1550.72,49.702L1551.31,49.677L1551.91,49.656L1552.5,49.639L1553.1,49.626L1553.7,49.617L1554.3,49.611L1554.9,49.609L1555.5,49.611ZM1554.49,79.61L1554.08,79.614L1553.67,79.621L1553.27,79.63L1552.86,79.641L1552.45,79.656L1552.05,79.672L1551.64,79.691L1551.24,79.713L1550.84,79.738L1550.43,79.764L1550.03,79.794L1549.63,79.825L1549.23,79.86L1548.83,79.897L1548.43,79.936L1548.04,79.978L1547.64,80.022L1547.24,80.069L1546.85,80.118L1546.45,80.169L1546.06,80.223L1545.66,80.28L1545.27,80.338L1544.88,80.4L1544.49,80.463L1544.1,80.529L1543.71,80.598L1543.32,80.668L1542.93,80.742L1542.54,80.817L1542.16,80.895L1541.77,80.975L1541.39,81.058L1541,81.143L1540.62,81.23L1540.24,81.319L1539.86,81.411L1539.48,81.505L1539.1,81.602L1538.72,81.7L1538.34,81.801L1537.97,81.905L1537.59,82.01L1537.22,82.118L1536.84,82.228L1536.47,82.34L1536.1,82.454L1535.73,82.571L1535.36,82.69L1534.99,82.811L1534.62,82.934L1534.25,83.06L1533.89,83.188L1533.52,83.317L1533.16,83.449L1532.8,83.584L1532.43,83.72L1532.08,83.858L1531.72,83.999L1531.36,84.142L1531,84.286L1530.64,84.433L1530.29,84.582L1529.93,84.734L1529.58,84.887L1529.23,85.042L1528.88,85.2L1528.53,85.359L1528.18,85.521L1527.83,85.684L1527.49,85.85L1527.14,86.017L1526.8,86.187L1526.46,86.359L1526.11,86.532L1525.77,86.708L1525.43,86.886L1525.1,87.065L1524.76,87.247L1524.42,87.431L1524.09,87.616L1523.76,87.804L1523.43,87.993L1523.1,88.185L1522.77,88.378L1522.44,88.573L1522.11,88.771L1521.79,88.97L1521.46,89.171L1521.14,89.374L1520.82,89.579L1520.5,89.785L1520.18,89.994L1519.86,90.204L1519.55,90.416L1519.23,90.631L1518.92,90.847L1518.61,91.064L1518.3,91.284L1517.99,91.505L1517.68,91.729L1517.37,91.954L1517.07,92.18L1516.76,92.409L1516.46,92.639L1516.16,92.872L1515.86,93.106L1515.56,93.341L1515.27,93.579L1514.97,93.818L1514.68,94.059L1514.38,94.301L1514.09,94.546L1513.8,94.792L1513.52,95.039L1513.23,95.289L1512.95,95.54L1512.66,95.793L1512.38,96.047L1512.1,96.303L1511.82,96.561L1511.55,96.82L1511.27,97.081L1511,97.344L1510.72,97.608L1510.45,97.874L1510.18,98.142L1509.92,98.411L1509.65,98.682L1509.39,98.954L1509.12,99.228L1508.86,99.503L1508.6,99.78L1508.35,100.059L1508.09,100.339L1507.84,100.62L1507.58,100.903L1507.33,101.188L1507.08,101.474L1506.83,101.762L1506.59,102.051L1506.34,102.342L1506.1,102.634L1505.86,102.928L1505.62,103.223L1505.38,103.519L1505.15,103.817L1504.91,104.117L1504.68,104.417L1504.45,104.72L1504.22,105.023L1504,105.329L1503.77,105.635L1503.55,105.943L1503.33,106.252L1503.11,106.563L1502.89,106.875L1502.67,107.189L1502.46,107.503L1502.25,107.819L1502.04,108.137L1501.83,108.456L1501.62,108.776L1501.42,109.097L1501.21,109.42L1501.01,109.744L1500.81,110.069L1500.62,110.396L1500.42,110.724L1500.23,111.053L1500.04,111.384L1499.85,111.715L1499.66,112.048L1499.47,112.382L1499.29,112.718L1499.11,113.055L1498.93,113.392L1498.75,113.732L1498.58,114.072L1498.4,114.413L1498.23,114.756L1498.06,115.1L1497.89,115.445L1497.73,115.791L1497.56,116.138L1497.4,116.487L1497.24,116.836L1497.08,117.187L1496.93,117.539L1496.78,117.892L1496.62,118.246L1496.48,118.601L1496.33,118.957L1496.18,119.315L1496.04,119.673L1495.9,120.033L1495.76,120.393L1495.63,120.755L1495.49,121.117L1495.36,121.481L1495.23,121.846L1495.1,122.212L1494.98,122.578L1494.85,122.946L1494.73,123.315L1494.61,123.685L1494.5,124.055L1494.38,124.427L1494.27,124.8L1494.16,125.173L1494.05,125.548L1493.95,125.923L1493.84,126.3L1493.74,126.677L1493.64,127.056L1493.55,127.435L1493.45,127.815L1493.36,128.196L1493.27,128.578L1493.18,128.961L1493.1,129.344L1493.02,129.729L1492.94,130.114L1492.86,130.501L1492.78,130.888L1492.71,131.276L1492.64,131.664L1492.57,132.054L1492.51,132.444L1492.44,132.836L1492.38,133.228L1492.32,133.62L1492.27,134.014L1492.21,134.408L1492.16,134.803L1492.11,135.199L1492.06,135.596L1492.02,135.993L1491.98,136.391L1491.94,136.79L1491.9,137.189L1491.87,137.59L1491.84,137.991L1491.81,138.392L1491.78,138.795L1491.76,139.198L1491.73,139.601L1491.71,140.005L1491.7,140.41L1491.68,140.816L1491.67,141.222L1491.66,141.629L1491.66,142.037L1491.65,142.445L1491.65,142.854L1491.65,143.262L1491.66,143.671L1491.66,144.078L1491.67,144.485L1491.68,144.891L1491.7,145.297L1491.71,145.702L1491.73,146.106L1491.76,146.51L1491.78,146.913L1491.81,147.315L1491.84,147.717L1491.87,148.118L1491.9,148.518L1491.94,148.917L1491.98,149.316L1492.02,149.714L1492.06,150.112L1492.11,150.508L1492.16,150.904L1492.21,151.299L1492.27,151.693L1492.32,152.087L1492.38,152.48L1492.44,152.872L1492.51,153.263L1492.57,153.653L1492.64,154.043L1492.71,154.432L1492.78,154.82L1492.86,155.207L1492.94,155.593L1493.02,155.978L1493.1,156.363L1493.18,156.747L1493.27,157.129L1493.36,157.511L1493.45,157.892L1493.55,158.272L1493.64,158.652L1493.74,159.03L1493.84,159.407L1493.95,159.784L1494.05,160.159L1494.16,160.534L1494.27,160.908L1494.38,161.28L1494.5,161.652L1494.61,162.023L1494.73,162.392L1494.85,162.761L1494.98,163.129L1495.1,163.496L1495.23,163.861L1495.36,164.226L1495.49,164.59L1495.63,164.953L1495.76,165.314L1495.9,165.675L1496.04,166.034L1496.18,166.393L1496.33,166.75L1496.48,167.106L1496.62,167.461L1496.78,167.816L1496.93,168.168L1497.08,168.52L1497.24,168.871L1497.4,169.221L1497.56,169.569L1497.73,169.916L1497.89,170.263L1498.06,170.608L1498.23,170.951L1498.4,171.294L1498.58,171.636L1498.75,171.976L1498.93,172.315L1499.11,172.653L1499.29,172.989L1499.47,173.325L1499.66,173.659L1499.85,173.992L1500.04,174.324L1500.23,174.654L1500.42,174.983L1500.62,175.311L1500.81,175.638L1501.01,175.963L1501.21,176.287L1501.42,176.61L1501.62,176.932L1501.83,177.252L1502.04,177.57L1502.25,177.888L1502.46,178.204L1502.67,178.519L1502.89,178.832L1503.11,179.144L1503.33,179.455L1503.55,179.764L1503.77,180.072L1504,180.379L1504.22,180.684L1504.45,180.988L1504.68,181.29L1504.91,181.591L1505.15,181.89L1505.38,182.188L1505.62,182.485L1505.86,182.78L1506.1,183.073L1506.34,183.366L1506.59,183.656L1506.83,183.945L1507.08,184.233L1507.33,184.519L1507.58,184.804L1507.84,185.087L1508.09,185.369L1508.35,185.649L1508.6,185.927L1508.86,186.204L1509.12,186.48L1509.39,186.753L1509.65,187.026L1509.92,187.296L1510.18,187.566L1510.45,187.833L1510.72,188.099L1511,188.363L1511.27,188.626L1511.55,188.887L1511.82,189.146L1512.1,189.404L1512.38,189.66L1512.66,189.915L1512.95,190.167L1513.23,190.419L1513.52,190.668L1513.8,190.916L1514.09,191.162L1514.38,191.406L1514.68,191.649L1514.97,191.89L1515.27,192.129L1515.56,192.366L1515.86,192.602L1516.16,192.836L1516.46,193.068L1516.76,193.298L1517.07,193.527L1517.37,193.754L1517.68,193.979L1517.99,194.202L1518.3,194.423L1518.61,194.643L1518.92,194.861L1519.23,195.077L1519.55,195.291L1519.86,195.503L1520.18,195.714L1520.5,195.922L1520.82,196.129L1521.14,196.334L1521.46,196.537L1521.79,196.738L1522.11,196.937L1522.44,197.134L1522.77,197.329L1523.1,197.523L1523.43,197.714L1523.76,197.903L1524.09,198.091L1524.42,198.277L1524.76,198.46L1525.1,198.642L1525.43,198.822L1525.77,198.999L1526.11,199.175L1526.46,199.349L1526.8,199.52L1527.14,199.69L1527.49,199.858L1527.83,200.023L1528.18,200.187L1528.53,200.348L1528.88,200.508L1529.23,200.665L1529.58,200.82L1529.93,200.974L1530.29,201.125L1530.64,201.274L1531,201.421L1531.36,201.566L1531.72,201.708L1532.08,201.849L1532.43,201.987L1532.8,202.124L1533.16,202.258L1533.52,202.39L1533.89,202.52L1534.25,202.647L1534.62,202.773L1534.99,202.896L1535.36,203.017L1535.73,203.136L1536.1,203.253L1536.47,203.367L1536.84,203.48L1537.22,203.59L1537.59,203.697L1537.97,203.803L1538.34,203.906L1538.72,204.007L1539.1,204.106L1539.48,204.202L1539.86,204.296L1540.24,204.388L1540.62,204.478L1541,204.565L1541.39,204.65L1541.77,204.732L1542.16,204.812L1542.54,204.89L1542.93,204.966L1543.32,205.039L1543.71,205.11L1544.1,205.178L1544.49,205.244L1544.88,205.308L1545.27,205.369L1545.66,205.428L1546.06,205.484L1546.45,205.538L1546.85,205.59L1547.24,205.639L1547.64,205.686L1548.04,205.73L1548.43,205.771L1548.83,205.811L1549.23,205.848L1549.63,205.882L1550.03,205.914L1550.43,205.943L1550.84,205.97L1551.24,205.994L1551.64,206.016L1552.05,206.035L1552.45,206.052L1552.86,206.066L1553.27,206.078L1553.67,206.087L1554.08,206.093L1554.49,206.097L1554.9,206.098L1555.31,206.097L1555.71,206.093L1556.12,206.087L1556.53,206.078L1556.93,206.066L1557.34,206.052L1557.74,206.035L1558.15,206.016L1558.55,205.994L1558.95,205.97L1559.36,205.943L1559.76,205.914L1560.16,205.882L1560.56,205.848L1560.96,205.811L1561.36,205.771L1561.76,205.73L1562.15,205.686L1562.55,205.639L1562.95,205.59L1563.34,205.538L1563.74,205.484L1564.13,205.428L1564.52,205.369L1564.91,205.308L1565.31,205.244L1565.7,205.178L1566.09,205.11L1566.47,205.039L1566.86,204.966L1567.25,204.89L1567.63,204.812L1568.02,204.732L1568.4,204.65L1568.79,204.565L1569.17,204.478L1569.55,204.388L1569.93,204.296L1570.32,204.202L1570.69,204.106L1571.07,204.007L1571.45,203.906L1571.83,203.803L1572.2,203.697L1572.58,203.59L1572.95,203.48L1573.32,203.367L1573.69,203.253L1574.07,203.136L1574.43,203.017L1574.8,202.896L1575.17,202.773L1575.54,202.647L1575.9,202.52L1576.27,202.39L1576.63,202.258L1577,202.124L1577.36,201.987L1577.72,201.849L1578.08,201.708L1578.43,201.566L1578.79,201.421L1579.15,201.274L1579.5,201.125L1579.86,200.974L1580.21,200.82L1580.56,200.665L1580.91,200.508L1581.26,200.348L1581.61,200.187L1581.96,200.023L1582.31,199.858L1582.65,199.69L1582.99,199.52L1583.34,199.349L1583.68,199.175L1584.02,198.999L1584.36,198.822L1584.69,198.642L1585.03,198.46L1585.37,198.277L1585.7,198.091L1586.03,197.903L1586.37,197.714L1586.7,197.523L1587.03,197.329L1587.35,197.134L1587.68,196.937L1588.01,196.738L1588.33,196.537L1588.65,196.334L1588.97,196.129L1589.29,195.922L1589.61,195.714L1589.93,195.503L1590.25,195.291L1590.56,195.077L1590.88,194.861L1591.19,194.643L1591.5,194.423L1591.81,194.202L1592.11,193.979L1592.42,193.754L1592.73,193.527L1593.03,193.298L1593.33,193.068L1593.63,192.836L1593.93,192.602L1594.23,192.366L1594.53,192.129L1594.82,191.89L1595.12,191.649L1595.41,191.406L1595.7,191.162L1595.99,190.916L1596.28,190.668L1596.56,190.419L1596.85,190.167L1597.13,189.915L1597.41,189.66L1597.69,189.404L1597.97,189.146L1598.25,188.887L1598.52,188.626L1598.8,188.363L1599.07,188.099L1599.34,187.833L1599.61,187.566L1599.88,187.296L1600.14,187.026L1600.41,186.753L1600.67,186.48L1600.93,186.204L1601.19,185.927L1601.45,185.649L1601.7,185.369L1601.96,185.087L1602.21,184.804L1602.46,184.519L1602.71,184.233L1602.96,183.945L1603.2,183.656L1603.45,183.366L1603.69,183.073L1603.93,182.78L1604.17,182.485L1604.41,182.188L1604.64,181.89L1604.88,181.591L1605.11,181.29L1605.34,180.988L1605.57,180.684L1605.8,180.379L1606.02,180.072L1606.24,179.764L1606.47,179.455L1606.68,179.144L1606.9,178.832L1607.12,178.519L1607.33,178.204L1607.55,177.888L1607.76,177.57L1607.96,177.252L1608.17,176.932L1608.38,176.61L1608.58,176.287L1608.78,175.963L1608.98,175.638L1609.18,175.311L1609.37,174.983L1609.57,174.654L1609.76,174.324L1609.95,173.992L1610.13,173.659L1610.32,173.325L1610.5,172.989L1610.68,172.653L1610.86,172.315L1611.04,171.976L1611.22,171.636L1611.39,171.294L1611.56,170.951L1611.73,170.608L1611.9,170.263L1612.07,169.916L1612.23,169.569L1612.39,169.221L1612.55,168.871L1612.71,168.52L1612.86,168.168L1613.02,167.816L1613.17,167.461L1613.32,167.106L1613.46,166.75L1613.61,166.393L1613.75,166.034L1613.89,165.675L1614.03,165.314L1614.17,164.953L1614.3,164.59L1614.43,164.226L1614.56,163.861L1614.69,163.496L1614.82,163.129L1614.94,162.761L1615.06,162.392L1615.18,162.023L1615.3,161.652L1615.41,161.28L1615.52,160.908L1615.63,160.534L1615.74,160.159L1615.85,159.784L1615.95,159.407L1616.05,159.03L1616.15,158.652L1616.24,158.272L1616.34,157.892L1616.43,157.511L1616.52,157.129L1616.61,156.747L1616.69,156.363L1616.77,155.978L1616.86,155.593L1616.93,155.207L1617.01,154.82L1617.08,154.432L1617.15,154.043L1617.22,153.653L1617.29,153.263L1617.35,152.872L1617.41,152.48L1617.47,152.087L1617.53,151.693L1617.58,151.299L1617.63,150.904L1617.68,150.508L1617.73,150.112L1617.77,149.714L1617.81,149.316L1617.85,148.917L1617.89,148.518L1617.92,148.118L1617.96,147.717L1617.99,147.315L1618.01,146.913L1618.04,146.51L1618.06,146.106L1618.08,145.702L1618.09,145.297L1618.11,144.891L1618.12,144.485L1618.13,144.078L1618.13,143.671L1618.14,143.262L1618.14,142.854L1618.14,142.445L1618.13,142.037L1618.13,141.629L1618.12,141.222L1618.11,140.816L1618.09,140.41L1618.08,140.005L1618.06,139.601L1618.04,139.198L1618.01,138.795L1617.99,138.392L1617.96,137.991L1617.92,137.59L1617.89,137.189L1617.85,136.79L1617.81,136.391L1617.77,135.993L1617.73,135.596L1617.68,135.199L1617.63,134.803L1617.58,134.408L1617.53,134.014L1617.47,133.62L1617.41,133.228L1617.35,132.836L1617.29,132.444L1617.22,132.054L1617.15,131.664L1617.08,131.276L1617.01,130.888L1616.93,130.501L1616.86,130.114L1616.77,129.729L1616.69,129.344L1616.61,128.961L1616.52,128.578L1616.43,128.196L1616.34,127.815L1616.24,127.435L1616.15,127.056L1616.05,126.677L1615.95,126.3L1615.85,125.923L1615.74,125.548L1615.63,125.173L1615.52,124.8L1615.41,124.427L1615.3,124.055L1615.18,123.685L1615.06,123.315L1614.94,122.946L1614.82,122.578L1614.69,122.212L1614.56,121.846L1614.43,121.481L1614.3,121.117L1614.17,120.755L1614.03,120.393L1613.89,120.033L1613.75,119.673L1613.61,119.315L1613.46,118.957L1613.32,118.601L1613.17,118.246L1613.02,117.892L1612.86,117.539L1612.71,117.187L1612.55,116.836L1612.39,116.487L1612.23,116.138L1612.07,115.791L1611.9,115.445L1611.73,115.1L1611.56,114.756L1611.39,114.413L1611.22,114.072L1611.04,113.732L1610.86,113.392L1610.68,113.055L1610.5,112.718L1610.32,112.382L1610.13,112.048L1609.95,111.715L1609.76,111.384L1609.57,111.053L1609.37,110.724L1609.18,110.396L1608.98,110.069L1608.78,109.744L1608.58,109.42L1608.38,109.097L1608.17,108.776L1607.96,108.456L1607.76,108.137L1607.55,107.819L1607.33,107.503L1607.12,107.189L1606.9,106.875L1606.68,106.563L1606.47,106.252L1606.24,105.943L1606.02,105.635L1605.8,105.329L1605.57,105.023L1605.34,104.72L1605.11,104.417L1604.88,104.117L1604.64,103.817L1604.41,103.519L1604.17,103.223L1603.93,102.928L1603.69,102.634L1603.45,102.342L1603.2,102.051L1602.96,101.762L1602.71,101.474L1602.46,101.188L1602.21,100.903L1601.96,100.62L1601.7,100.339L1601.45,100.059L1601.19,99.78L1600.93,99.503L1600.67,99.228L1600.41,98.954L1600.14,98.682L1599.88,98.411L1599.61,98.142L1599.34,97.874L1599.07,97.608L1598.8,97.344L1598.52,97.081L1598.25,96.82L1597.97,96.561L1597.69,96.303L1597.41,96.047L1597.13,95.793L1596.85,95.54L1596.56,95.289L1596.28,95.039L1595.99,94.792L1595.7,94.546L1595.41,94.301L1595.12,94.059L1594.82,93.818L1594.53,93.579L1594.23,93.341L1593.93,93.106L1593.63,92.872L1593.33,92.639L1593.03,92.409L1592.73,92.18L1592.42,91.954L1592.11,91.729L1591.81,91.505L1591.5,91.284L1591.19,91.064L1590.88,90.847L1590.56,90.631L1590.25,90.416L1589.93,90.204L1589.61,89.994L1589.29,89.785L1588.97,89.579L1588.65,89.374L1588.33,89.171L1588.01,88.97L1587.68,88.771L1587.35,88.573L1587.03,88.378L1586.7,88.185L1586.37,87.993L1586.03,87.804L1585.7,87.616L1585.37,87.431L1585.03,87.247L1584.69,87.065L1584.36,86.886L1584.02,86.708L1583.68,86.532L1583.34,86.359L1582.99,86.187L1582.65,86.017L1582.31,85.85L1581.96,85.684L1581.61,85.521L1581.26,85.359L1580.91,85.2L1580.56,85.042L1580.21,84.887L1579.86,84.734L1579.5,84.582L1579.15,84.433L1578.79,84.286L1578.43,84.142L1578.08,83.999L1577.72,83.858L1577.36,83.72L1577,83.584L1576.63,83.449L1576.27,83.317L1575.9,83.188L1575.54,83.06L1575.17,82.934L1574.8,82.811L1574.43,82.69L1574.07,82.571L1573.69,82.454L1573.32,82.34L1572.95,82.228L1572.58,82.118L1572.2,82.01L1571.83,81.905L1571.45,81.801L1571.07,81.7L1570.69,81.602L1570.32,81.505L1569.93,81.411L1569.55,81.319L1569.17,81.23L1568.79,81.143L1568.4,81.058L1568.02,80.975L1567.63,80.895L1567.25,80.817L1566.86,80.742L1566.47,80.668L1566.09,80.598L1565.7,80.529L1565.31,80.463L1564.91,80.4L1564.52,80.338L1564.13,80.28L1563.74,80.223L1563.34,80.169L1562.95,80.118L1562.55,80.069L1562.15,80.022L1561.76,79.978L1561.36,79.936L1560.96,79.897L1560.56,79.86L1560.16,79.825L1559.76,79.794L1559.36,79.764L1558.95,79.738L1558.55,79.713L1558.15,79.691L1557.74,79.672L1557.34,79.656L1556.93,79.641L1556.53,79.63L1556.12,79.621L1555.71,79.614L1555.31,79.61L1554.9,79.609L1554.49,79.61Z"/>
                </g>
                <g transform="matrix(-0.178432,-0.169847,0.537979,-2.85818,1311.05,1697.29)">
                    <path d="M1397.69,198.446L1489.87,440.586L1305.51,440.586L1397.69,198.446Z"/>
                </g>
                <g transform="matrix(0.178432,-0.169847,-0.532186,-2.8274,1316.66,1679.26)">
                    <path d="M1397.69,198.446L1489.87,440.586L1305.51,440.586L1397.69,198.446Z"/>
                </g>
            </g>
        </g>
    </g>
</svg>
