<?xml version="1.0" encoding="iso-8859-1"?>
<!-- Generator: Adobe Illustrator 19.0.0, SVG Export Plug-In . SVG Version: 6.00 Build 0)  -->
<svg xmlns="http://www.w3.org/2000/svg" xmlns:xlink="http://www.w3.org/1999/xlink" version="1.1" id="Layer_1" x="0px" y="0px" viewBox="0 0 512 512" style="enable-background:new 0 0 512 512;" xml:space="preserve" width="512" height="512">
<g>
	<polygon points="235.898,297.315 281.563,342.979 473.259,186.138 368.104,165.109  "/>
	<polygon points="486.103,158.107 512,0 357.758,22.035 375.928,136.072  "/>
	<path d="M76.799,435.201c-17.246-17.246-46.394-17.246-63.64,0c-17.546,17.546-17.546,46.093,0,63.64   c17.546,17.546,46.093,17.546,63.64,0C94.046,481.594,94.046,452.447,76.799,435.201z"/>
	<polygon points="214.685,276.102 346.892,143.894 325.866,38.735 169.021,230.437  "/>
	<path d="M54.996,393.365c15.852,2.063,31.14,8.746,43.017,20.623s18.56,27.165,20.623,43.017l53.623-53.623l-63.64-63.64   L54.996,393.365z"/>
	<path d="M272,375.953c-45.292-45.292-90.486-91.483-135.953-136.95H88V269h35.618c5.368,5.368,4.029,4.916,10.265,11.151   l-10.607,31.82l76.753,76.753l31.82-10.607c6.236,6.236,4.765,4.875,10.155,10.265V425H272V375.953z"/>
</g>















</svg>
