<?xml version="1.0" encoding="iso-8859-1"?>
<!-- Generator: Adobe Illustrator 17.1.0, SVG Export Plug-In . SVG Version: 6.00 Build 0)  -->
<!DOCTYPE svg PUBLIC "-//W3C//DTD SVG 1.1//EN" "http://www.w3.org/Graphics/SVG/1.1/DTD/svg11.dtd">
<svg version="1.1" id="Capa_1" xmlns="http://www.w3.org/2000/svg" xmlns:xlink="http://www.w3.org/1999/xlink" x="0px" y="0px"
	 viewBox="0 0 198.628 198.628" style="enable-background:new 0 0 198.628 198.628;" xml:space="preserve">
<path d="M193.628,1.314h-16.456c-2.761,0-5,2.238-5,5v24h-63.013v-1.877c0-7.481-6.086-13.567-13.567-13.567h-0.173
	c-7.481,0-13.567,6.086-13.567,13.567v1.877H68.82v-1.877c0-7.481-6.086-13.567-13.567-13.567H55.08
	c-7.481,0-13.567,6.086-13.567,13.567v1.877H26.456v-24c0-2.762-2.239-5-5-5H5c-2.761,0-5,2.238-5,5v186c0,2.762,2.239,5,5,5h16.456
	c2.761,0,5-2.238,5-5v-24h10.709v2.433c0,7.481,6.086,13.567,13.567,13.567h0.173c7.481,0,13.567-6.086,13.567-13.567v-2.433h13.032
	v2.433c0,7.481,6.086,13.567,13.567,13.567h0.173c7.481,0,13.567-6.086,13.567-13.567v-2.433h67.36v24c0,2.762,2.239,5,5,5h16.456
	c2.761,0,5-2.238,5-5v-186C198.628,3.552,196.389,1.314,193.628,1.314z M41.512,40.314v2.988c0,7.481,6.086,13.567,13.567,13.567
	h0.173c7.481,0,13.567-6.086,13.567-13.567v-2.988h13.032v2.988c0,7.481,6.086,13.567,13.567,13.567h0.173
	c7.481,0,13.567-6.086,13.567-13.567v-2.988h63.013v54h-18.367v-3.877c0-7.481-6.086-13.567-13.567-13.567h-0.173
	c-7.481,0-13.567,6.086-13.567,13.567v3.877h-13.032v-3.877c0-7.481-6.086-13.567-13.567-13.567h-0.173
	c-7.481,0-13.567,6.086-13.567,13.567v3.877H26.456v-54H41.512z M104.812,158.314v-2.433c0-7.481-6.086-13.567-13.567-13.567h-0.173
	c-7.481,0-13.567,6.086-13.567,13.567v2.433H64.473v-2.433c0-7.481-6.086-13.567-13.567-13.567h-0.173
	c-7.481,0-13.567,6.086-13.567,13.567v2.433H26.456v-54h59.703v0.988c0,7.481,6.086,13.567,13.567,13.567h0.173
	c7.481,0,13.567-6.086,13.567-13.567v-0.988h13.032v0.988c0,7.481,6.086,13.567,13.567,13.567h0.173
	c7.481,0,13.567-6.086,13.567-13.567v-0.988h18.367v54H104.812z"/>
<g>
</g>
<g>
</g>
<g>
</g>
<g>
</g>
<g>
</g>
<g>
</g>
<g>
</g>
<g>
</g>
<g>
</g>
<g>
</g>
<g>
</g>
<g>
</g>
<g>
</g>
<g>
</g>
<g>
</g>
</svg>
