<svg version="1" xmlns="http://www.w3.org/2000/svg" viewBox="0 0 199 199"><path d="M194 1h-17c-3 0-5 3-5 5v24h-63v-2c0-7-6-13-13-13h-1c-7 0-13 6-13 13v2H69v-2c0-7-6-13-14-13-7 0-13 6-13 13v2H26V6c0-2-2-5-5-5H5C2 1 0 4 0 6v186c0 3 2 5 5 5h16c3 0 5-2 5-5v-24h11v3c0 7 6 13 14 13 7 0 13-6 13-13v-3h14v3c0 7 6 13 13 13 8 0 14-6 14-13v-3h67v24c0 3 2 5 5 5h17c2 0 5-2 5-5V6c0-2-3-5-5-5zM42 40v3c0 8 6 14 13 14 8 0 14-6 14-14v-3h13v3c0 8 6 14 13 14h1c7 0 13-6 13-14v-3h63v54h-18v-4c0-7-6-13-14-13-7 0-14 6-14 13v4h-13v-4c0-7-6-13-13-13-8 0-14 6-14 13v4H26V40h16zm63 118v-2c0-8-6-14-14-14-7 0-13 6-13 14v2H64v-2c0-8-6-14-13-14-8 0-14 6-14 14v2H26v-54h60v1c0 8 6 14 14 14 7 0 13-6 13-14v-1h13v1c0 8 7 14 14 14 8 0 14-6 14-14v-1h18v54h-67z"/></svg>